<svg xmlns="http://www.w3.org/2000/svg" xmlns:xlink="http://www.w3.org/1999/xlink" viewBox="0 0 900 955">
  <title>Hue Am I Doing Cutout</title>
  <mask id="lamp-mask">
    <rect width="900" height="955" rx="114.14" ry="114.14"
      fill="white"/>
    <path d="M693.5,354c0-127.85-103.65-231.5-231.5-231.5S230.5,226.15,230.5,354A231.41,231.41,0,0,0,348.17,555.61V691.69c0,22.59,9.24,43.57,24.4,55.41l55.25,43.14a55.55,55.55,0,0,0,68.36,0l55.25-43.14c15.16-11.84,24.4-32.82,24.4-55.41V555.61A231.41,231.41,0,0,0,693.5,354Z"
      stroke-width="0" stroke="#000" fill="black"/>
    <path d="M462,136c-120.4,0-218,97.6-218,218A218,218,0,0,0,358,545.64V688.13c0,20.64,8.44,39.81,22.3,50.63l50.47,39.41a50.75,50.75,0,0,0,62.46,0l50.47-39.41c13.86-10.82,22.3-30,22.3-50.63V545.62A218.26,218.26,0,0,0,680,354C680,233.6,582.4,136,462,136Z"
      stroke-width="0" stroke="#000" fill="black"/>
    <path d="M400.33,371.58c1.32,2.95,3.92,6.7,4.43,9.88.48,3,1.49.92-.61,3.4-1.06,1.26-3.47,2.29-4.81,3.3a66.36,66.36,0,0,0-13.88,14.46,103.73,103.73,0,0,0-16.61,36.09c-5.64,24.27-.9,55.65,18,73.29,16,14.91,40.72,18.75,57.8,3.38,18.2-16.37,17.68-43.89,14.56-66.12a228.49,228.49,0,0,0-4.93-24.72q-1.56-6.1-3.4-12.13c-.63-2.06-4.72-10.18-3.91-12,.66-1.49,8.26-3.08,10.05-3.73q6-2.16,12-4.26c8.82-3.09,17.65-6.14,26.39-9.45,7.64,28.53,15.21,57.15,17.25,86.74.76,11.11-.13,27.81,15.23,28.88a17.47,17.47,0,0,0,14.44-6.45c4.66-5.88,3.31-13.63,2.9-20.58C543.66,444,538,416.8,531,390.15l-2.81-10.53c-.6-2.28-2.92-7.14-2.53-9.52s9.06-7.1,11.26-9.27a91.5,91.5,0,0,0,13.39-17.43c14.76-24,23.53-52.82,20.25-81.15-2.38-20.51-10.9-44.67-31.68-53-23.64-9.44-43.22,10.15-52.07,30.35C475,266.55,478.08,297.78,482.5,326c.56,3.63,1.2,7.25,1.89,10.86s3.26,9.49,2.7,12.92c-.07.43.45.75.28,1.24-.33,1-2.52,1.42-3.67,1.84-3.78,1.41-7.57,2.76-11.36,4.11-7.15,2.53-14.32,5-21.47,7.54q-4.9,1.75-9.79,3.56c-.84.31-5.09,2.53-5.84,2.22-1-.41-2.5-5.8-3-6.94-2.9-6.64-7.44-13.68-9.29-20.67-.77-2.91-.43-2.7,1.12-5.4,1-1.74,2-3.48,2.9-5.24q2.83-5.29,5.35-10.75a149,149,0,0,0,12.46-41.15c3.49-24.53.45-51.43-19.29-68.6-9.89-8.61-23.19-14.2-36.45-11.77-12.66,2.31-23.51,11.81-29,23.24-12.54,26.06,1.28,58.53,11.46,82.94q4.59,11,9.34,21.94c1,2.28,4.73,7.64,4.44,10.1Zm129.9-129.43-.64-.86C529.94,241.61,530.22,241.93,530.23,242.15Zm-1.84-2.69C528.33,239.54,528.34,239.54,528.39,239.46Zm-.49,0C527.92,239.56,527.79,239.48,527.9,239.48Zm-.18-.39C527.76,239.8,527.71,238.92,527.72,239.09Zm-16.42,42c.1-3.63.33-7.25.71-10.85.94-9.86,4.35-22.38,12-29.62-1.26.61,1-.75.94-.81-.6-.57,3.61,0,2.63,0,6.4,3.79,9.14,15.58,10.33,22.3a68,68,0,0,1,0,23.59,122.2,122.2,0,0,1-7.4,25.85c-3.27,7.47-7.55,17.15-13.62,22.76C513.22,316.77,510.82,299,511.3,281.05ZM421.16,426.6c4.89,17.22,10.07,37.31,6.3,55.23-1.5,7.14-5.94,14-14.21,10.18a21.24,21.24,0,0,1-5.79-4.55,13.73,13.73,0,0,1-3-3.94c-.22-.46-1.78-5.39-1.08-3.45a70.55,70.55,0,0,1-2.61-8.13c-.32-1.23-.6-2.46-.85-3.7-.1-.51-.69-4.54-.41-1.71-.86-8.65-.63-19.75,2.85-28.4,3.12-7.72,9-17.55,15.29-23.14ZM387.65,243.52c.27-2.25.36-2.28.27-.07-1.53-1.47,2.93-11,5.3-11.37-.44.43-.88.87-1.31,1.32a6.22,6.22,0,0,1,1.68-1.38c.71-.23,2.94-.61,2.08-.86,3-.15,5.64,2.08,7.69,4-.42-.3-.86-.59-1.3-.86,1.84,2,4.08,3.25,5.68,5.56-2.14-3.14,1.18,1.52,1.3,1.71a29.06,29.06,0,0,1,2.48,4.76,28.37,28.37,0,0,1,1.6,5.09c.09.42.63,4.89.47,2.74a105.89,105.89,0,0,1-1.44,24.6,119.51,119.51,0,0,1-3.24,13.18c-1,3.1-1.85,8.08-3.93,10.63.64-.78-3.21-7.52-3.66-8.61-2.31-5.5-4.49-11.06-6.45-16.7C391.35,267.09,386.41,254.47,387.65,243.52Z"
     stroke-width="0" stroke="#000" fill="white"/>
  </mask>
  <g id="Layer_1" data-name="Layer 1">
    <rect width="900" height="955" rx="114.14" ry="114.14" mask="url(#lamp-mask)"
      fill="#e3e3e3"/>
  </g>
</svg>
