<svg xmlns="http://www.w3.org/2000/svg" xmlns:xlink="http://www.w3.org/1999/xlink" viewBox="0 0 900 955">
  <defs>
    <style>
      .cls-1,
      .cls-12,
      .cls-13,
      .cls-8 {
        fill: none;
      }

      .cls-1,
      .cls-11,
      .cls-12,
      .cls-13 {
        stroke-linecap: round;
      }

      .cls-1,
      .cls-11 {
        stroke-linejoin: round;
        stroke-width: 8px;
      }

      .cls-1 {
        stroke: url(#linear-gradient);
      }

      .cls-2 {
        fill: #171726;
      }

      .cls-3 {
        fill: url(#linear-gradient-2);
      }

      .cls-4 {
        fill: url(#radial-gradient);
      }

      .cls-5 {
        fill: #5f6f9e;
      }

      .cls-6 {
        fill: #bdceff;
      }

      .cls-7 {
        fill: #18264d;
      }

      .cls-9 {
        fill: red;
      }

      .cls-10 {
        clip-path: url(#clip-path);
      }

      .cls-11 {
        fill: url(#linear-gradient-3);
        stroke: url(#linear-gradient-4);
      }

      .cls-12,
      .cls-13 {
        stroke: #99b3ff;
        stroke-miterlimit: 10;
      }

      .cls-12 {
        stroke-width: 5px;
      }

      .cls-13 {
        stroke-width: 6px;
      }
    </style>
    <linearGradient id="linear-gradient" x1="312.61" y1="747.16" x2="599.94" y2="249.48" gradientUnits="userSpaceOnUse">
      <stop offset="0.06" stop-color="#199dbf" />
      <stop offset="0.09" stop-color="#2574ac" />
      <stop offset="0.12" stop-color="#304d9b" />
      <stop offset="0.16" stop-color="#392e8d" />
      <stop offset="0.19" stop-color="#3f1883" />
      <stop offset="0.21" stop-color="#430a7d" />
      <stop offset="0.24" stop-color="#44067b" />
      <stop offset="0.4" stop-color="#ee0b7c" />
      <stop offset="0.41" stop-color="#ef1579" />
      <stop offset="0.44" stop-color="#f1446b" />
      <stop offset="0.47" stop-color="#f36c5f" />
      <stop offset="0.5" stop-color="#f58a56" />
      <stop offset="0.53" stop-color="#f6a04f" />
      <stop offset="0.56" stop-color="#f7ae4b" />
      <stop offset="0.59" stop-color="#f7b24a" />
      <stop offset="0.87" stop-color="#feffda" />
    </linearGradient>
    <linearGradient id="linear-gradient-2" x1="450" y1="900" x2="450" gradientUnits="userSpaceOnUse">
      <stop offset="0.02" stop-color="#202140" />
      <stop offset="1" stop-color="#333663" />
    </linearGradient>
    <radialGradient id="radial-gradient" cx="463" cy="354" r="296" gradientUnits="userSpaceOnUse">
      <stop offset="0.26" stop-color="#af53ff" />
      <stop offset="0.31" stop-color="#ab53fd" stop-opacity="0.92" />
      <stop offset="0.57" stop-color="#9655f5" stop-opacity="0.53" />
      <stop offset="0.78" stop-color="#8656ee" stop-opacity="0.24" />
      <stop offset="0.93" stop-color="#7d57ea" stop-opacity="0.07" />
      <stop offset="1" stop-color="#7957e9" stop-opacity="0" />
    </radialGradient>
    <clipPath id="clip-path">
      <path class="cls-1"
        d="M564.4,620.06c-43.59,6.47-86.79,16-130.13,24-21.52,4-43.16,7.6-64.58,12.09-4.85,1-15.28,5.54-18.34-.11-2-3.62.37-8.81,3.44-9.48,21.75-5.19,44.2-8.29,66.19-12.36l68.23-12.62c22.71-4.2,45.41-8.51,68.14-12.6,10-1.8,21.06-2.35,30.22-7.18a38.84,38.84,0,0,0,17.11-18.25c7.11-15.78,2.7-35.54-10.5-46.72-17.41-14.73-39.17-4.71-58.53-.05-45,10.83-90.6,19.8-136.36,27.05-22.19,3.52-45.38,7.88-67.91,7.4a41.77,41.77,0,0,1-24.69-8.79c-6.72-5.32-10.16-11.76-14.05-19.12.16.51.34,1,.53,1.52-11.47-31.78,12-61.35,32.22-83.75,24.41-27,51.94-51.2,74.94-79.53,1.32,2.95,3.92,6.7,4.43,9.88.48,3,1.49.92-.61,3.4-1.06,1.26-3.47,2.29-4.81,3.3a66.36,66.36,0,0,0-13.88,14.46,103.73,103.73,0,0,0-16.61,36.09c-5.64,24.27-.9,55.65,18,73.29,16,14.91,40.72,18.75,57.8,3.38,18.2-16.37,17.68-43.89,14.56-66.12a228.49,228.49,0,0,0-4.93-24.72q-1.56-6.1-3.4-12.13c-.63-2.06-4.72-10.18-3.91-12,.66-1.49,8.26-3.08,10.05-3.73q6-2.16,12-4.26c8.82-3.09,17.65-6.14,26.39-9.45,7.64,28.53,15.21,57.15,17.25,86.74.76,11.11-.13,27.81,15.23,28.88a17.47,17.47,0,0,0,14.44-6.45c4.66-5.88,3.31-13.63,2.9-20.58C543.66,454,538,426.8,531,400.15l-2.81-10.53c-.6-2.28-2.92-7.14-2.53-9.52s9.06-7.1,11.26-9.27a91.5,91.5,0,0,0,13.39-17.43c14.76-24,23.53-52.82,20.25-81.15-2.38-20.51-10.9-44.67-31.68-53-23.64-9.44-43.22,10.15-52.07,30.35C475,276.55,478.08,307.78,482.5,336c.56,3.63,1.2,7.25,1.89,10.86s3.26,9.49,2.7,12.92c-.07.43.45.75.28,1.24-.33,1-2.52,1.42-3.67,1.84-3.78,1.41-7.57,2.76-11.36,4.11-7.15,2.53-14.32,5-21.47,7.54q-4.9,1.75-9.79,3.56c-.84.31-5.09,2.53-5.84,2.22-1-.41-2.5-5.8-3-6.94-2.9-6.64-7.44-13.68-9.29-20.67-.77-2.91-.43-2.7,1.12-5.4,1-1.74,2-3.48,2.9-5.24q2.83-5.29,5.35-10.75a149,149,0,0,0,12.46-41.15c3.49-24.53.45-51.43-19.29-68.6-9.89-8.61-23.19-14.2-36.45-11.77-12.66,2.31-23.51,11.81-29,23.24-12.54,26.06,1.28,58.53,11.46,82.94q4.59,11,9.34,21.94c1,2.28,4.73,7.64,4.44,10.1-.32,2.78-5.62,7.91-7.36,10.17-9,11.74-19.22,22.6-29.56,33.18-18.85,19.28-38.8,37.63-56.11,58.36-15.49,18.54-29.79,39.92-34,64.16a77.71,77.71,0,0,0,21.38,67.5,76.35,76.35,0,0,0,29.9,18.72c14.6,4.89,30.17,4,45.24,2.3,63.78-7.17,127.13-19.42,189.54-34.32q11.58-2.76,23.11-5.74c1.83-.47,3.85-1.64,5.61-.75,1.4.7,3,3.9,2.67,5.41q0-.83,0-1.65c0,.66-.32,3.32,0,3.85,0-.26,0-.52,0-.77a6.78,6.78,0,0,1-3.75,4.79c-5.08,2.54-12.77,2.6-18.3,3.62l-41.48,7.67L428.14,600l-41.47,7.67c-11.3,2.09-22.86,3.33-34.05,5.93-10.43,2.41-20.27,6.83-26.77,15.65a40.86,40.86,0,0,0-7.06,30.24,38.14,38.14,0,0,0,15.13,24.68c9.94,7.26,21,7.37,32.7,5.28,27.37-4.9,54.7-10.12,82-15.18l81.88-15.14,19.17-3.54c6.25-1.16,13-3.34,19.38-3.67,5.22-.27,7.82,5.19,4.94,9.56-2.71,4.12-9.07,3.73-13.39,4.49C506,675.6,451.53,685.94,397,696c-11.94,2.2-25.79,2.83-36.17,9.73a38.85,38.85,0,0,0-16.72,27.4c-2.74,22,13.14,42.47,35.65,43.17,12.47.39,25.61-3.79,37.81-6.06q20.18-3.76,40.35-7.52l20.52-3.8c5.77-1.07,12.93-1.28,18.25-3.86,8.44-4.11,11.15-15.46,6.2-23.16-6.71-10.43-18.77-6.91-28.85-5l-41.4,7.69L392.73,742c-5.75,1.07-18,5.26-16.29-5.08.59-3.51,2.88-4.52,6.08-5.32,6.65-1.65,13.54-2.53,20.28-3.77l39.78-7.32,82.5-15.14c13.31-2.45,26.61-5,39.95-7.35,12.05-2.11,23.65-4.15,32.32-13.56,14.92-16.18,13.51-43.84-4.32-57.37A38.29,38.29,0,0,0,564.4,620.06ZM530.23,252.15l-.64-.86C529.94,251.61,530.22,251.93,530.23,252.15Zm-1.84-2.69C528.33,249.54,528.34,249.54,528.39,249.46Zm-.49,0C527.92,249.56,527.79,249.48,527.9,249.48Zm-.18-.39C527.76,249.8,527.71,248.92,527.72,249.09Zm-16.42,42c.1-3.63.33-7.25.71-10.85.94-9.86,4.35-22.38,12-29.62-1.26.61,1-.75.94-.81-.6-.57,3.61,0,2.63,0,6.4,3.79,9.14,15.58,10.33,22.3a68,68,0,0,1,0,23.59,122.2,122.2,0,0,1-7.4,25.85c-3.27,7.47-7.55,17.15-13.62,22.76C513.22,326.77,510.82,309,511.3,291.05ZM421.16,436.6c4.89,17.22,10.07,37.31,6.3,55.23-1.5,7.14-5.94,14-14.21,10.18a21.24,21.24,0,0,1-5.79-4.55,13.73,13.73,0,0,1-3-3.94c-.22-.46-1.78-5.39-1.08-3.45a70.55,70.55,0,0,1-2.61-8.13c-.32-1.23-.6-2.46-.85-3.7-.1-.51-.69-4.54-.41-1.71-.86-8.65-.63-19.75,2.85-28.4,3.12-7.72,9-17.55,15.29-23.14ZM387.65,253.52c.27-2.25.36-2.28.27-.07-1.53-1.47,2.93-11,5.3-11.37-.44.43-.88.87-1.31,1.32a6.22,6.22,0,0,1,1.68-1.38c.71-.23,2.94-.61,2.08-.86,3-.15,5.64,2.08,7.69,4-.42-.3-.86-.59-1.3-.86,1.84,2,4.08,3.25,5.68,5.56-2.14-3.14,1.18,1.52,1.3,1.71a29.06,29.06,0,0,1,2.48,4.76,28.37,28.37,0,0,1,1.6,5.09c.09.42.63,4.89.47,2.74a105.89,105.89,0,0,1-1.44,24.6,119.51,119.51,0,0,1-3.24,13.18c-1,3.1-1.85,8.08-3.93,10.63.64-.78-3.21-7.52-3.66-8.61-2.31-5.5-4.49-11.06-6.45-16.7C391.35,277.09,386.41,264.47,387.65,253.52Zm-37,399.26,0,1.3C350.58,652.64,350.59,652.2,350.66,652.78Zm224.22,2.27c-1-1.73-.27-.89,0,0Zm-198.66,83.1a3.88,3.88,0,0,1,0,1.4Zm199-81.8,0,1.75C575.21,657.52,575.26,656.94,575.26,656.35Z" />
    </clipPath>
    <linearGradient id="linear-gradient-3" x1="463.51" y1="827.12" x2="463.51" y2="56.39"
      gradientUnits="userSpaceOnUse">
      <stop offset="0.06" stop-color="#199dbf" />
      <stop offset="0.09" stop-color="#2574ac" />
      <stop offset="0.11" stop-color="#304d9b" />
      <stop offset="0.13" stop-color="#392e8d" />
      <stop offset="0.16" stop-color="#3f1883" />
      <stop offset="0.18" stop-color="#430a7d" />
      <stop offset="0.2" stop-color="#44067b" />
      <stop offset="0.34" stop-color="#ee0b7c" />
      <stop offset="0.52" stop-color="#fb0f66" />
      <stop offset="0.71" stop-color="#f7b24a" />
      <stop offset="0.87" stop-color="#16dc95" />
    </linearGradient>
    <linearGradient id="linear-gradient-4" x1="221.23" y1="861.03" x2="705.5" y2="22.26"
      xlink:href="#linear-gradient" />
  </defs>
  <title>Hue Am I Doing</title>
  <g id="Layer_1" data-name="Layer 1">
    <rect class="cls-2" y="55" width="900" height="900" rx="114.14" ry="114.14" />
    <rect class="cls-3" width="900" height="900" rx="114.14" ry="114.14" />
    <circle class="cls-4" cx="463" cy="354" r="296" />
    <path class="cls-5"
      d="M502.18,795.24l55.25-43.14c15.16-11.84,24.4-32.82,24.4-55.41V503.91H354.17V696.69c0,22.59,9.24,43.57,24.4,55.41l55.25,43.14A55.55,55.55,0,0,0,502.18,795.24Z" />
    <circle class="cls-5" cx="473.5" cy="360.5" r="229.5" />
    <path class="cls-6"
      d="M496.18,790.24l55.25-43.14c15.16-11.84,24.4-32.82,24.4-55.41V498.91H348.17V691.69c0,22.59,9.24,43.57,24.4,55.41l55.25,43.14A55.55,55.55,0,0,0,496.18,790.24Z" />
    <circle class="cls-6" cx="462" cy="354" r="231.5" />
    <path class="cls-7"
      d="M493.23,778.17l50.47-39.41c13.86-10.82,22.3-30,22.3-50.63V512H358V688.13c0,20.64,8.44,39.81,22.3,50.63l50.47,39.41A50.75,50.75,0,0,0,493.23,778.17Z" />
    <path class="cls-6"
      d="M549,567c26-7,52.36-28.13,52.36-28.13l-1.28-16.18a217.2,217.2,0,0,1-82,42C523.41,569.45,532.87,571.34,549,567Z" />
    <path class="cls-7"
      d="M462,136c-120.4,0-218,97.6-218,218s97.6,218,218,218A218,218,0,0,0,680,354C680,233.6,582.4,136,462,136Z" />
    <path class="cls-7" d="M588.67,524.43s-25,14.11-33.33,19.84S544,527,544,527l54-19Z" />
    <path class="cls-8" d="M526.18,249.41l-.17,0a1.74,1.74,0,0,1-.2.13l.44-.08Z" />
    <path class="cls-8" d="M526.85,249.33l-.09,0,.23.07Z" />
    <path class="cls-8" d="M527.57,249.78a1.54,1.54,0,0,0,.43-.05l-.42-.12-.12.1Z" />
    <path class="cls-8" d="M525.41,249.61l.14.06.26-.15Z" />
    <path class="cls-8" d="M524.94,249.77a3.17,3.17,0,0,0-.68.56l.6-.3C525,249.93,525,249.84,524.94,249.77Z" />
    <path class="cls-8" d="M527.58,249.61s0-.09.07-.13l-.56,0,.23.08Z" />
    <path class="cls-8" d="M526.76,249.35a3.71,3.71,0,0,0-.56-.14.51.51,0,0,1-.13.13l.11.07h.19Z" />
    <path class="cls-8" d="M527.09,249.45l-.1,0,0,0Z" />
    <path class="cls-8" d="M537.9,295.67c0-.08,0-.21.07-.43C538,295.38,537.92,295.53,537.9,295.67Z" />
    <path class="cls-8" d="M524,250.58l.26-.25C523.14,250.91,523.47,250.84,524,250.58Z" />
    <path class="cls-8" d="M575.79,568.09c0,.1,0,.21-.07.31s0,.19,0,.31C575.78,569.63,575.79,569,575.79,568.09Z" />
    <path class="cls-8" d="M575.78,567.14c0,.33,0,.66,0,1A2,2,0,0,0,575.78,567.14Z" />
    <path class="cls-8" d="M529.59,251.29l.64.86C530.22,251.93,529.94,251.61,529.59,251.29Z" />
    <path class="cls-8" d="M527.72,249.09s-.12.08-.32.13l.29.16A.67.67,0,0,0,527.72,249.09Z" />
    <path class="cls-8" d="M528.39,249.46s0,0-.09,0l.05,0Z" />
    <path class="cls-8" d="M527.9,249.48h-.06l.07,0A.08.08,0,0,0,527.9,249.48Z" />
    <path class="cls-8" d="M350.66,652.78s0-.06,0-.11c0,.43,0,.89,0,1.41C350.64,653.42,350.65,653,350.66,652.78Z" />
    <path class="cls-8" d="M413.59,264.11c0,.23,0,.45,0,.68s0,.2,0,.3C413.64,264.76,413.62,264.44,413.59,264.11Z" />
    <path class="cls-8"
      d="M575.26,656.35c0,1,0,1.43,0,1.52a1.41,1.41,0,0,1,0,.23C575.25,657.59,575.25,657,575.26,656.35Z" />
    <path class="cls-8"
      d="M388,261.31l0,.3a172.93,172.93,0,0,0,6.86,25.6c1.5,4.3,3.13,8.54,4.83,12.76q1.28,3.16,2.6,6.3c.29.68,3,5.86,2.68,6.25l0,0c1.05-1.29,1.36-3.09,1.92-4.63,5-13.83,7.7-28.36,6.71-43.07A29.54,29.54,0,0,0,407,248.68l.79,1.13-.8-1.14a23.35,23.35,0,0,0-1.93-2l-1.62-1.49-1.05-.68c-.47-.35-.48-.36,1,.65a18.55,18.55,0,0,0-4.5-3.25,6.82,6.82,0,0,0-3.19-.7,2.3,2.3,0,0,1,.49.2c-.28-.16-.94,0-1.58.28-.35.13-.69.26-.94.34l-.1.08c-1,.68-3,2.65-.32,0h0l-.18,0a9.7,9.7,0,0,0-2.58,3l0,.05a21.13,21.13,0,0,0-2.47,6.46c.07,1.41,0,1.89,0,1.84,0-.55,0-1.09,0-1.64q-.17.85-.27,1.71a41.91,41.91,0,0,0,.31,7.68A.36.36,0,0,0,388,261.31Zm23.58-4.7-.42-1.19C411.35,256,411.48,256.37,411.56,256.61ZM399,242.4l.14.08-.6-.22Zm-2.2-.73-.35-.1C398,241.76,398.14,241.79,396.79,241.67Z" />
    <path class="cls-8"
      d="M376.22,738.15c0,.43,0,.89,0,1.4,0-.66,0-1.08,0-1.31C376.23,738.23,376.23,738.2,376.22,738.15Z" />
    <path class="cls-8"
      d="M413.08,430.12c-3.93,5.21-6.77,11.2-10.06,16.68a.46.46,0,0,0,0,.26c-1,.75-1.51,4.52-1.77,5.49a64,64,0,0,0-1.62,8,67.4,67.4,0,0,0-.22,14.89,71.32,71.32,0,0,0,4,14.63c-.09-.24-.17-.47-.25-.7.91,2.63,1,4.53,2.91,6.63,1,1.12,3,2.87,4.15,3.92l.21.1.16.22.65.56a10.29,10.29,0,0,0,10.37,1.35l.15-.06a7.86,7.86,0,0,0,3.68-3.7,29.47,29.47,0,0,0,2.29-7.52c1.29-6.94,1-14,.34-21-.13-1.39-.29-2.78-.44-4.17,0-.24-.05-.44-.07-.62s-.09-.47-.14-.79c-.52-3-1-5.95-1.6-8.91-1.28-6.3-2.84-12.55-4.59-18.75L417.61,425l-.33.29A39.5,39.5,0,0,0,413.08,430.12Zm-9.85,16.77c-1.12,2.27.66-2.06,0,0Zm3.62,49.38c.25.28.52.55.79.83C407.68,497.19,407.49,497,406.85,496.27Zm6.51,5.5c.41.24.81.47,1.23.69A10.78,10.78,0,0,1,413.36,501.77Z" />
    <path class="cls-8" d="M399.47,476.53c0-.36-.07-.73-.1-1.09,0-.05,0-.1,0-.14Z" />
    <path class="cls-8"
      d="M513.69,326.81c.9,5.86,2,11.68,3.19,17.47l1-1.09.32-.38.41-.62c1.54-2.28,3.13-4.51,4.58-6.86a121.94,121.94,0,0,0,7.27-13.81c.18-.45,1-2.3,1.06-2.56.51-1.34,1-2.68,1.46-4,.93-2.7,1.77-5.44,2.5-8.2s1.37-5.53,1.91-8.33c.17-.9.32-1.81.47-2.72-.11.59.31-2.29.36-2.73a95.3,95.3,0,0,0,.21-16.55c-.06-.77-.17-1.78-.21-2.2-.15-.94-.3-1.88-.48-2.81a72.84,72.84,0,0,0-2-7.69c-.4-1.25-.86-2.47-1.3-3.71a3.79,3.79,0,0,1-.12-.36l-.32-.55c-1.26-2.3-2.4-4.61-3.86-6.8l-.72-1.06c-.41-.37-.87-.73-1.1-1l-.82-.46h-.18a2.45,2.45,0,0,1-1.84-.1,7,7,0,0,1-.63.33l-.06,0a3.65,3.65,0,0,1-.86.55c-.63.59-1.35,1.31-1.43,1.39-.36.37-1.46,1.73-1.56,1.79-.37.55-.74,1.11-1.09,1.67a53.9,53.9,0,0,0-3,5.71c.56-1.14-1.35,3.65-1.52,4.17-.42,1.3-.81,2.62-1.16,3.94-.74,2.73-1.33,5.49-1.8,8.28-.07.4-.48,3.74-.38,2.67l-.18,1.74c-.28,3-.45,6.07-.53,9.11a191.14,191.14,0,0,0,.64,20.59C512.5,318.47,512.93,321.87,513.69,326.81Z" />
    <path class="cls-8" d="M574.88,655.05c-.27-.89-1-1.73,0,0Z" />
    <path class="cls-9" d="M407.64,497.1c-.27-.28-.54-.55-.79-.83C407.49,497,407.68,497.19,407.64,497.1Z" />
    <path class="cls-9" d="M414.59,502.46c-.42-.22-.82-.45-1.23-.69A10.78,10.78,0,0,0,414.59,502.46Z" />
    <path class="cls-9" d="M524.26,250.33l-.26.25a3.65,3.65,0,0,0,.86-.55Z" />
    <path class="cls-9"
      d="M527.39,249.77h.18l-.11-.07.12-.1-.26-.08-.23-.08H527l0,0-.23-.07-.39.07h-.19l.07,0-.44.08-.26.15A2.45,2.45,0,0,0,527.39,249.77Z" />
    <path class="cls-9" d="M403.23,446.89c.66-2.06-1.12,2.27,0,0Z" />
    <path class="cls-9"
      d="M575.78,567.14s-.11.27-.06,1.26c0-.1,0-.21.07-.31C575.79,567.8,575.78,567.47,575.78,567.14Z" />
    <path class="cls-9" d="M411.14,255.42l.42,1.19C411.48,256.37,411.35,256,411.14,255.42Z" />
    <path class="cls-9" d="M399,242.4l-.46-.14.6.22Z" />
    <path class="cls-9" d="M396.44,241.57l.35.1C398.14,241.79,398,241.76,396.44,241.57Z" />
    <g class="cls-10">
      <path class="cls-11"
        d="M169,57H742.07c2.4,0,14.42-1.54,15.93.26.69.83,0,5.26,0,6.3V823.1c0,5.11-.55,3.9-5.77,3.9H171.83c-4.47,0-2.83-2.51-2.83-6.79V57Z" />
    </g>
    <path class="cls-1"
      d="M564.4,620.06c-43.59,6.47-86.79,16-130.13,24-21.52,4-43.16,7.6-64.58,12.09-4.85,1-15.28,5.54-18.34-.11-2-3.62.37-8.81,3.44-9.48,21.75-5.19,44.2-8.29,66.19-12.36l68.23-12.62c22.71-4.2,45.41-8.51,68.14-12.6,10-1.8,21.06-2.35,30.22-7.18a38.84,38.84,0,0,0,17.11-18.25c7.11-15.78,2.7-35.54-10.5-46.72-17.41-14.73-39.17-4.71-58.53-.05-45,10.83-90.6,19.8-136.36,27.05-22.19,3.52-45.38,7.88-67.91,7.4a41.77,41.77,0,0,1-24.69-8.79c-6.72-5.32-10.16-11.76-14.05-19.12.16.51.34,1,.53,1.52-11.47-31.78,12-61.35,32.22-83.75,24.41-27,51.94-51.2,74.94-79.53,1.32,2.95,3.92,6.7,4.43,9.88.48,3,1.49.92-.61,3.4-1.06,1.26-3.47,2.29-4.81,3.3a66.36,66.36,0,0,0-13.88,14.46,103.73,103.73,0,0,0-16.61,36.09c-5.64,24.27-.9,55.65,18,73.29,16,14.91,40.72,18.75,57.8,3.38,18.2-16.37,17.68-43.89,14.56-66.12a228.49,228.49,0,0,0-4.93-24.72q-1.56-6.1-3.4-12.13c-.63-2.06-4.72-10.18-3.91-12,.66-1.49,8.26-3.08,10.05-3.73q6-2.16,12-4.26c8.82-3.09,17.65-6.14,26.39-9.45,7.64,28.53,15.21,57.15,17.25,86.74.76,11.11-.13,27.81,15.23,28.88a17.47,17.47,0,0,0,14.44-6.45c4.66-5.88,3.31-13.63,2.9-20.58C543.66,454,538,426.8,531,400.15l-2.81-10.53c-.6-2.28-2.92-7.14-2.53-9.52s9.06-7.1,11.26-9.27a91.5,91.5,0,0,0,13.39-17.43c14.76-24,23.53-52.82,20.25-81.15-2.38-20.51-10.9-44.67-31.68-53-23.64-9.44-43.22,10.15-52.07,30.35C475,276.55,478.08,307.78,482.5,336c.56,3.63,1.2,7.25,1.89,10.86s3.26,9.49,2.7,12.92c-.07.43.45.75.28,1.24-.33,1-2.52,1.42-3.67,1.84-3.78,1.41-7.57,2.76-11.36,4.11-7.15,2.53-14.32,5-21.47,7.54q-4.9,1.75-9.79,3.56c-.84.31-5.09,2.53-5.84,2.22-1-.41-2.5-5.8-3-6.94-2.9-6.64-7.44-13.68-9.29-20.67-.77-2.91-.43-2.7,1.12-5.4,1-1.74,2-3.48,2.9-5.24q2.83-5.29,5.35-10.75a149,149,0,0,0,12.46-41.15c3.49-24.53.45-51.43-19.29-68.6-9.89-8.61-23.19-14.2-36.45-11.77-12.66,2.31-23.51,11.81-29,23.24-12.54,26.06,1.28,58.53,11.46,82.94q4.59,11,9.34,21.94c1,2.28,4.73,7.64,4.44,10.1-.32,2.78-5.62,7.91-7.36,10.17-9,11.74-19.22,22.6-29.56,33.18-18.85,19.28-38.8,37.63-56.11,58.36-15.49,18.54-29.79,39.92-34,64.16a77.71,77.71,0,0,0,21.38,67.5,76.35,76.35,0,0,0,29.9,18.72c14.6,4.89,30.17,4,45.24,2.3,63.78-7.17,127.13-19.42,189.54-34.32q11.58-2.76,23.11-5.74c1.83-.47,3.85-1.64,5.61-.75,1.4.7,3,3.9,2.67,5.41q0-.83,0-1.65c0,.66-.32,3.32,0,3.85,0-.26,0-.52,0-.77a6.78,6.78,0,0,1-3.75,4.79c-5.08,2.54-12.77,2.6-18.3,3.62l-41.48,7.67L428.14,600l-41.47,7.67c-11.3,2.09-22.86,3.33-34.05,5.93-10.43,2.41-20.27,6.83-26.77,15.65a40.86,40.86,0,0,0-7.06,30.24,38.14,38.14,0,0,0,15.13,24.68c9.94,7.26,21,7.37,32.7,5.28,27.37-4.9,54.7-10.12,82-15.18l81.88-15.14,19.17-3.54c6.25-1.16,13-3.34,19.38-3.67,5.22-.27,7.82,5.19,4.94,9.56-2.71,4.12-9.07,3.73-13.39,4.49C506,675.6,451.53,685.94,397,696c-11.94,2.2-25.79,2.83-36.17,9.73a38.85,38.85,0,0,0-16.72,27.4c-2.74,22,13.14,42.47,35.65,43.17,12.47.39,25.61-3.79,37.81-6.06q20.18-3.76,40.35-7.52l20.52-3.8c5.77-1.07,12.93-1.28,18.25-3.86,8.44-4.11,11.15-15.46,6.2-23.16-6.71-10.43-18.77-6.91-28.85-5l-41.4,7.69L392.73,742c-5.75,1.07-18,5.26-16.29-5.08.59-3.51,2.88-4.52,6.08-5.32,6.65-1.65,13.54-2.53,20.28-3.77l39.78-7.32,82.5-15.14c13.31-2.45,26.61-5,39.95-7.35,12.05-2.11,23.65-4.15,32.32-13.56,14.92-16.18,13.51-43.84-4.32-57.37A38.29,38.29,0,0,0,564.4,620.06ZM530.23,252.15l-.64-.86C529.94,251.61,530.22,251.93,530.23,252.15Zm-1.84-2.69C528.33,249.54,528.34,249.54,528.39,249.46Zm-.49,0C527.92,249.56,527.79,249.48,527.9,249.48Zm-.18-.39C527.76,249.8,527.71,248.92,527.72,249.09Zm-16.42,42c.1-3.63.33-7.25.71-10.85.94-9.86,4.35-22.38,12-29.62-1.26.61,1-.75.94-.81-.6-.57,3.61,0,2.63,0,6.4,3.79,9.14,15.58,10.33,22.3a68,68,0,0,1,0,23.59,122.2,122.2,0,0,1-7.4,25.85c-3.27,7.47-7.55,17.15-13.62,22.76C513.22,326.77,510.82,309,511.3,291.05ZM421.16,436.6c4.89,17.22,10.07,37.31,6.3,55.23-1.5,7.14-5.94,14-14.21,10.18a21.24,21.24,0,0,1-5.79-4.55,13.73,13.73,0,0,1-3-3.94c-.22-.46-1.78-5.39-1.08-3.45a70.55,70.55,0,0,1-2.61-8.13c-.32-1.23-.6-2.46-.85-3.7-.1-.51-.69-4.54-.41-1.71-.86-8.65-.63-19.75,2.85-28.4,3.12-7.72,9-17.55,15.29-23.14ZM387.65,253.52c.27-2.25.36-2.28.27-.07-1.53-1.47,2.93-11,5.3-11.37-.44.43-.88.87-1.31,1.32a6.22,6.22,0,0,1,1.68-1.38c.71-.23,2.94-.61,2.08-.86,3-.15,5.64,2.08,7.69,4-.42-.3-.86-.59-1.3-.86,1.84,2,4.08,3.25,5.68,5.56-2.14-3.14,1.18,1.52,1.3,1.71a29.06,29.06,0,0,1,2.48,4.76,28.37,28.37,0,0,1,1.6,5.09c.09.42.63,4.89.47,2.74a105.89,105.89,0,0,1-1.44,24.6,119.51,119.51,0,0,1-3.24,13.18c-1,3.1-1.85,8.08-3.93,10.63.64-.78-3.21-7.52-3.66-8.61-2.31-5.5-4.49-11.06-6.45-16.7C391.35,277.09,386.41,264.47,387.65,253.52Zm-37,399.26,0,1.3C350.58,652.64,350.59,652.2,350.66,652.78Zm224.22,2.27c-1-1.73-.27-.89,0,0Zm-198.66,83.1a3.88,3.88,0,0,1,0,1.4Zm199-81.8,0,1.75C575.21,657.52,575.26,656.94,575.26,656.35Z" />
    <polygon class="cls-7" points="358 558.78 358 609.64 566 570.21 566 517.37 358 558.78" />
    <polygon class="cls-7" points="358 654.6 358 695.21 566 658.54 566 612.8 358 654.6" />
    <path class="cls-7"
      d="M383.85,740.68l48.09,38.47a2.85,2.85,0,0,0,2.39.56l71.52-15.46a2.86,2.86,0,0,0,1.79-1.24l23-35.51a2.91,2.91,0,0,1,.81-.83l21.31-14.2a2.86,2.86,0,0,0-2.06-5.2L385.15,735.63a2.86,2.86,0,0,0-2.36,2.54h0A2.88,2.88,0,0,0,383.85,740.68Z" />
    <path class="cls-12"
      d="M622,467.83q-4.49,6-9.44,11.76l-4.44,5.12a184.37,184.37,0,0,1-15.42,15.83,92,92,0,0,1-24.22,16" />
    <path class="cls-12" d="M637.52,442.93l-.15.3q-3.11,6-6.66,11.77" />
    <path class="cls-12"
      d="M375.63,177.2A195.69,195.69,0,0,1,462.5,157C571,157,659,245,659,353.5a196.93,196.93,0,0,1-6.91,51.84" />
    <path class="cls-12" d="M321.94,216.18A197.67,197.67,0,0,1,350.6,192" />
    <path class="cls-12" d="M279.13,424.26A196.88,196.88,0,0,1,296.6,248.15" />
    <path class="cls-12" d="M357.57,519.67A196.88,196.88,0,0,1,324.07,493" />
    <polygon class="cls-6" points="358 607.6 358 546 348 556 348 610 358 607.6" />
    <path class="cls-6" d="M358,649.46l.63,47.42L348,695V661.75a12.56,12.56,0,0,1,10-12.29Z" />
    <path class="cls-6" d="M381,737l45.84,38.08-10.67,6.06-28-22.18A20.91,20.91,0,0,1,381,737Z" />
    <path class="cls-6" d="M566,612l9.83,2.13v36.2A10.91,10.91,0,0,1,567.38,661l-1.49.35Z" />
    <path class="cls-6" d="M566,571.14l2.79-.66a8.08,8.08,0,0,0,6.21-7.86V514l-9,3Z" />
    <line class="cls-13" x1="411.5" y1="663.5" x2="518.5" y2="644.5" />
    <line class="cls-13" x1="393.5" y1="580" x2="534.5" y2="554" />
    <line class="cls-13" x1="433.5" y1="749.5" x2="496.5" y2="738.5" />
  </g>
</svg>
